HIERARCHY
ROOT hip
{
  OFFSET 0 0 0
  CHANNELS 6 Xposition Yposition Zposition Zrotation Yrotation Xrotation
  JOINT abdomen
  {
    OFFSET 0 20.6881 -0.73152
    CHANNELS 3 Zrotation Xrotation Yrotation
    JOINT chest
    {
      OFFSET 0 11.7043 -0.48768
      CHANNELS 3 Zrotation Xrotation Yrotation
      JOINT neck
      {
        OFFSET 0 22.1894 -2.19456
        CHANNELS 3 Zrotation Xrotation Yrotation
        JOINT head
        {
          OFFSET -0.24384 7.07133 1.2192
          CHANNELS 3 Zrotation Xrotation Yrotation
          JOINT leftEye
          {
            OFFSET 4.14528 8.04674 8.04672
            CHANNELS 3 Zrotation Xrotation Yrotation
            End Site
            {
              OFFSET 1 0 0
            }
          }
          JOINT rightEye
          {
            OFFSET -3.6576 8.04674 8.04672
            CHANNELS 3 Zrotation Xrotation Yrotation
            End Site
            {
              OFFSET 1 0 0
            }
          }
        }
      }
      JOINT rCollar
      {
        OFFSET -2.68224 19.2634 -4.8768
        CHANNELS 3 Zrotation Xrotation Yrotation
        JOINT rShldr
        {
          OFFSET -8.77824 -1.95073 1.46304
          CHANNELS 3 Zrotation Xrotation Yrotation
          JOINT rForeArm
          {
            OFFSET -28.1742 -1.7115 0.48768
            CHANNELS 3 Zrotation Xrotation Yrotation
            JOINT rHand
            {
              OFFSET -22.5879 0.773209 7.07136
              CHANNELS 3 Zrotation Xrotation Yrotation
              JOINT rThumb1
              {
                OFFSET -1.2192 -0.487915 3.41376
                CHANNELS 3 Zrotation Xrotation Yrotation
                JOINT rThumb2
                {
                  OFFSET -3.37035 -0.52449 3.41376
                  CHANNELS 3 Zrotation Xrotation Yrotation
                  End Site
                  {
                    OFFSET -1.78271 -1.18214 1.43049
                  }
                }
              }
              JOINT rIndex1
              {
                OFFSET -7.75947 0.938293 5.60832
                CHANNELS 3 Zrotation Xrotation Yrotation
                JOINT rIndex2
                {
                  OFFSET -2.54057 -0.884171 1.56538
                  CHANNELS 3 Zrotation Xrotation Yrotation
                  End Site
                  {
                    OFFSET -1.62519 -0.234802 1.16502
                  }
                }
              }
              JOINT rMid1
              {
                OFFSET -8.24714 1.18213 3.41376
                CHANNELS 3 Zrotation Xrotation Yrotation
                JOINT rMid2
                {
                  OFFSET -3.10165 -0.590103 1.0647
                  CHANNELS 3 Zrotation Xrotation Yrotation
                  End Site
                  {
                    OFFSET -2.48547 -0.328903 0.83742
                  }
                }
              }
              JOINT rRing1
              {
                OFFSET -8.82822 0.546677 1.51678
                CHANNELS 3 Zrotation Xrotation Yrotation
                JOINT rRing2
                {
                  OFFSET -2.60934 -0.819778 -0.0198488
                  CHANNELS 3 Zrotation Xrotation Yrotation
                  End Site
                  {
                    OFFSET -2.33842 -0.294052 0.168128
                  }
                }
              }
              JOINT rPinky1
              {
                OFFSET -8.27202 -0.0477905 -0.4584
                CHANNELS 3 Zrotation Xrotation Yrotation
                JOINT rPinky2
                {
                  OFFSET -1.82734 -0.647385 -0.700984
                  CHANNELS 3 Zrotation Xrotation Yrotation
                  End Site
                  {
                    OFFSET -1.69225 -0.51767 -0.607171
                  }
                }
              }
            }
          }
        }
      }
      JOINT lCollar
      {
        OFFSET 2.68224 19.2634 -4.8768
        CHANNELS 3 Zrotation Xrotation Yrotation
        JOINT lShldr
        {
          OFFSET 8.77824 -1.95073 1.46304
          CHANNELS 3 Zrotation Xrotation Yrotation
          JOINT lForeArm
          {
            OFFSET 28.1742 -1.7115 0.48768
            CHANNELS 3 Zrotation Xrotation Yrotation
            JOINT lHand
            {
              OFFSET 22.5879 0.773209 7.07136
              CHANNELS 3 Zrotation Xrotation Yrotation
              JOINT lThumb1
              {
                OFFSET 1.2192 -0.487915 3.41376
                CHANNELS 3 Zrotation Xrotation Yrotation
                JOINT lThumb2
                {
                  OFFSET 3.37035 -0.52449 3.41376
                  CHANNELS 3 Zrotation Xrotation Yrotation
                  End Site
                  {
                    OFFSET 1.78271 -1.18214 1.43049
                  }
                }
              }
              JOINT lIndex1
              {
                OFFSET 7.75947 0.938293 5.60832
                CHANNELS 3 Zrotation Xrotation Yrotation
                JOINT lIndex2
                {
                  OFFSET 2.54057 -0.884171 1.56538
                  CHANNELS 3 Zrotation Xrotation Yrotation
                  End Site
                  {
                    OFFSET 1.62519 -0.234802 1.16502
                  }
                }
              }
              JOINT lMid1
              {
                OFFSET 8.24714 1.18213 3.41376
                CHANNELS 3 Zrotation Xrotation Yrotation
                JOINT lMid2
                {
                  OFFSET 3.10165 -0.590103 1.0647
                  CHANNELS 3 Zrotation Xrotation Yrotation
                  End Site
                  {
                    OFFSET 2.48547 -0.328903 0.83742
                  }
                }
              }
              JOINT lRing1
              {
                OFFSET 8.82822 0.546677 1.51678
                CHANNELS 3 Zrotation Xrotation Yrotation
                JOINT lRing2
                {
                  OFFSET 2.60934 -0.819778 -0.0198488
                  CHANNELS 3 Zrotation Xrotation Yrotation
                  End Site
                  {
                    OFFSET 2.33842 -0.294052 0.168128
                  }
                }
              }
              JOINT lPinky1
              {
                OFFSET 8.27202 -0.0477905 -0.4584
                CHANNELS 3 Zrotation Xrotation Yrotation
                JOINT lPinky2
                {
                  OFFSET 1.82734 -0.647385 -0.700984
                  CHANNELS 3 Zrotation Xrotation Yrotation
                  End Site
                  {
                    OFFSET 1.69225 -0.51767 -0.607171
                  }
                }
              }
            }
          }
        }
      }
    }
  }
  JOINT rButtock
  {
    OFFSET -8.77824 4.35084 1.2192
    CHANNELS 3 Zrotation Xrotation Yrotation
    JOINT rThigh
    {
      OFFSET 0 -1.70687 -2.19456
      CHANNELS 3 Zrotation Xrotation Yrotation
      JOINT rShin
      {
        OFFSET 0 -36.8199 0.73152
        CHANNELS 3 Zrotation Xrotation Yrotation
        JOINT rFoot
        {
          OFFSET 0.73152 -45.1104 -5.12064
          CHANNELS 3 Zrotation Xrotation Yrotation
          End Site
          {
            OFFSET -1.1221 -3.69964 12.103
          }
        }
      }
    }
  }
  JOINT lButtock
  {
    OFFSET 8.77824 4.35084 1.2192
    CHANNELS 3 Zrotation Xrotation Yrotation
    JOINT lThigh
    {
      OFFSET 0 -1.70687 -2.19456
      CHANNELS 3 Zrotation Xrotation Yrotation
      JOINT lShin
      {
        OFFSET 0 -36.8199 0.73152
        CHANNELS 3 Zrotation Xrotation Yrotation
        JOINT lFoot
        {
          OFFSET -0.73152 -45.1104 -5.12064
          CHANNELS 3 Zrotation Xrotation Yrotation
          End Site
          {
            OFFSET 1.1221 -3.69964 12.103
          }
        }
      }
    }
  }
}
MOTION
Frames:	8
Frame Time:	0.03333
-10.7767 56.2902 77.158 176.241137 -43.934745 -172.708957 -6.809675 8.517914 -141.124051 1.359212 9.015494 136.460315 -16.463681 27.998257 -73.226685 40.898416 -2.578496 29.939553 -0.002704 -0.0 0.002252 -0.002704 -0.0 0.002252 -130.420141 54.549234 134.287766 151.709536 -8.274722 153.550441 -7.291317 -4.828007 85.83058 -5.864061 37.716853 3.618215 -8.202824 7.848599 1.806713 -118.230529 -12.077444 105.275607 -50.3863 40.825679 40.025494 -162.896983 -8.471741 112.305604 -36.035804 51.722798 29.833327 -4.588089 20.811104 4.361192 -145.118746 0.26796 -179.212038 9.091869 -11.263708 -10.532274 0.096657 0.25874 0.09091 -80.622559 -54.509424 -80.217764 9.651229 34.836197 -11.199342 -72.137877 6.869247 -25.959 -62.618827 41.26009 -75.287245 25.458038 1.374487 -4.523385 -0.594898 -0.588094 0.088809 15.20971 15.078134 -12.819968 90.2266 41.072694 -75.796267 23.483534 36.94442 -10.555117 36.037159 51.722862 -29.832354 -80.701081 -77.89975 -52.068333 0.000495 -0.018319 0.007214 -7.986193 22.981376 -3.349652 144.857734 11.078988 141.544984 24.164931 -39.117545 25.594972 0.000576 -0.000582 -0.00074 -57.037663 -50.599143 -135.340296 -84.299438 7.158139 -37.16632 -77.023413 71.738361 172.486792 -0.000274 0.001983 0.000352 32.528717 -19.514485 -70.573859 -65.415627 -11.237718 57.255111 -125.383062 -70.143492 -40.368067
-10.901900000000001 56.257999999999996 77.40690000000001 176.51366 -43.898692 -173.046779 -6.612737 8.453727 -141.741488 1.35481 8.967097 137.335625 -16.318672 30.724388 -88.037537 42.786878 7.010041 41.174643 -0.000637 0.0 -0.000299 -0.000637 0.0 -0.000299 -159.220629 -48.028427 170.415462 92.186517 61.248904 -88.333824 -179.005705 2.55395 58.755014 152.153586 -39.316331 137.626886 -166.63203 -4.304861 89.770085 62.831106 -65.813685 48.400399 -100.824121 37.734041 85.16216 5.533331 1.206016 -5.804916 -125.643602 49.839607 115.273652 2.717277 2.005637 0.522047 0.00168 0.063721 0.020362 11.542828 -29.448308 -3.526016 1.299145 3.491146 1.194685 -20.065078 -37.785362 -20.82559 -1.99045 -14.052907 2.880969 -70.751083 7.131811 20.248196 -178.630961 -41.187883 -34.957367 138.170058 34.686357 -123.101754 -90.437549 -50.940806 -38.664513 15.786729 -43.910486 30.356436 0.328065 0.52976 -0.186247 79.557546 48.081563 -62.049885 161.152478 -8.160453 -143.4665 172.498471 -31.852083 -143.623918 71.92388 72.974481 -89.771604 159.837386 -0.424314 -176.29861 144.64461 10.416659 141.353273 -16.090659 41.163538 -5.85632 0.002086 -0.000667 0.001043 -57.065949 -48.69296 -49.985163 10.824611 80.162053 -108.806727 44.650525 76.381246 47.646573 0.000336 0.001053 -0.000432 31.662617 -21.098851 -180.0 61.939296 -51.971146 146.891869 3.41591 51.3643 111.057591
-10.9931 56.2106 77.62010000000001 176.796346 -43.901094 -173.357231 -7.985899 12.658664 1.434291 5.819718 -12.220777 -4.608254 -15.569307 32.961763 -100.949587 43.058426 15.290608 50.749913 -0.000891 0.0 -0.000342 -0.000891 0.0 -0.000342 -83.951493 68.258411 87.08575 168.275198 3.041203 137.861666 -120.165292 -29.931771 91.953007 72.923172 -64.056138 63.149416 -68.482292 37.953456 35.659964 -135.172045 -27.100116 85.437569 12.216653 -21.784701 -5.119817 12.773156 1.896373 -0.995238 -85.132545 61.022722 76.738884 -111.669043 59.85715 102.385448 -145.099833 -1.52104 -178.650026 4.969823 -36.340708 -15.532731 -145.255763 12.332823 -141.895314 -138.437767 -10.946931 -134.617758 158.51408 -30.70212 -167.038689 55.031333 -7.817021 11.557379 179.748811 -28.523727 76.231848 15.977615 -44.315396 11.573377 -51.059727 -41.203743 -12.857326 153.512144 -52.89957 -138.516942 108.428609 34.161195 -91.742635 161.774091 -6.404171 -115.95242 0.971032 2.779212 -0.554331 -3.107611 0.409856 -0.026229 0.000199 -0.018407 0.006643 149.979119 38.866837 -164.83479 135.067876 -13.384092 132.470199 145.683826 7.780325 140.868399 -0.000868 0.000157 -0.000434 -57.019638 -49.830895 -136.179585 -84.035205 8.096289 -44.730203 59.852646 -26.684181 163.745615 179.967465 75.750431 0.026769 -136.857964 44.566538 0.0 27.927987 69.448023 -132.594504 -143.420476 59.616772 -130.103752
-11.0714 56.132099999999994 77.8151 177.098949 -43.913684 -173.644602 -7.77475 12.600746 1.38813 5.780119 -12.188236 -4.457471 -16.144695 31.345392 -90.350085 43.022225 8.5586 42.751704 0.003571 0.0 0.001813 0.003423 0.0 0.001332 -150.169166 21.535364 155.275516 154.547201 -1.66138 178.471574 -27.255524 -28.171756 70.839008 -0.660893 22.804715 3.405339 -103.199055 36.331261 60.111851 84.142488 -49.438116 40.382834 -134.540561 10.541646 112.295366 -170.078033 -26.547491 117.951336 -125.646071 49.841176 115.275367 -25.319862 49.099698 21.067465 -145.101007 -1.521802 -178.649368 12.214099 36.61357 -4.851203 -25.538959 -38.086342 -24.600605 3.193689 -0.033232 -0.299506 -0.162909 -0.990046 0.218691 99.56451 -7.534765 172.787523 -8.623358 31.573522 142.954595 135.975001 36.439614 -120.917189 -13.163944 -13.115789 0.521292 134.549874 -27.622315 -121.209388 0.327117 0.530308 -0.184466 -178.494868 -37.974131 -104.763713 160.826874 -7.141464 -143.317205 165.364023 -11.051285 -143.509583 -0.005001 1.771623 -0.554936 -4.652226 -74.991125 15.370224 144.260065 9.238649 141.007903 -2.764143 1.010857 1.677108 -0.000105 -0.000579 0.000135 -56.466847 -48.14497 -63.728322 -46.930852 81.151169 -113.432334 32.242655 6.510018 167.560344 0.000773 0.000197 -0.000994 31.130477 -19.826423 60.682484 48.515866 53.887641 -100.833315 -96.174008 -84.326189 -17.599722
-11.1502 56.0157 78.0045 177.413531 -43.877505 -173.910927 -6.014672 8.228564 -143.640415 1.075043 8.816664 139.640932 -13.500309 35.804567 -119.730574 41.185027 26.851363 64.91913 0.003137 0.0 0.002521 -0.003653 0.0 -0.00256 4.208749 -43.44309 -8.384351 -122.28405 -0.684612 177.850559 13.569827 -4.725379 -118.26838 155.861181 -33.383509 140.983155 -176.598165 -14.213127 89.691752 165.367846 -31.30361 101.675482 -1.956672 3.105513 1.140919 -164.558277 -17.439931 109.90577 -82.840397 61.109904 74.532477 -128.941857 51.960796 118.328957 -0.00011 0.022411 0.008351 -23.384336 72.955962 36.411251 0.552235 1.455721 0.506685 -10.568475 -26.763593 -11.805754 -0.022632 -0.138758 0.030164 -108.948109 83.717184 34.188132 -140.673318 52.84825 -69.876276 109.318876 48.847374 -93.123293 -6.463464 -6.452759 0.636032 30.903604 25.329036 -24.138269 8.572228 12.508804 -5.449698 178.979213 -33.966889 -106.547143 158.523366 -0.192033 -142.144643 13.623221 36.290334 -11.087686 -0.000518 0.063863 -0.019901 -9.78615 6.860023 -0.828752 1.149596 -2.914261 1.066422 9.966173 -26.00588 11.320611 -179.997846 75.749345 -0.002222 145.260599 10.128572 0.0 -13.780888 78.974796 -86.053958 51.326092 80.366106 40.484119 179.994752 75.750176 0.005415 -138.107504 42.0497 126.747708 65.887395 -56.701813 -7.132955 -96.432109 60.391993 -8.205884
-11.228399999999999 55.8787 78.1881 177.74109 -43.759637 -174.161732 -5.822346 12.084063 -32.632831 10.006571 -7.33929 29.616803 -11.399039 21.016499 -23.822197 18.400402 -27.975948 -17.255763 0.00181 -0.0 -0.000915 0.00181 -0.0 -0.000915 1.929492 -13.545159 -2.784397 111.943976 -68.503209 58.710579 -179.332977 -52.892704 57.698223 150.095153 -41.516376 136.208328 -5.763099 5.575367 1.158999 -5.244145 6.353831 7.923038 -117.900534 27.949635 99.678497 -95.736638 53.359498 72.24285 7.906269 -24.80727 -3.012755 -166.319134 -13.913731 144.054454 -145.121212 1.97448 -179.750783 -156.403396 63.702992 172.335856 12.25304 41.42507 10.277312 14.125374 41.894972 8.104902 -3.191786 -25.838952 5.073732 -62.538739 -1.873325 30.816019 13.434077 58.323781 -121.310534 15.652546 -55.759322 15.957981 103.199646 36.33016 -60.110774 48.798519 -5.676382 -41.38486 138.494447 4.89623 -114.864101 63.80999 56.640564 -45.563615 6.646144 17.108804 -4.326485 -3.494916 -0.595869 0.096656 0.02052 -1.725667 0.542065 155.973184 -13.74847 -173.48899 161.701748 70.564732 151.0264 153.413961 27.683592 145.352321 -0.004633 -0.000588 -0.004633 -59.672819 -48.811549 113.760649 15.28231 -84.977768 -6.245699 88.595324 38.587049 -173.04743 -179.988997 75.75023 -0.007529 -136.86457 43.493531 -0.0 55.084327 62.114848 34.218755 -30.686866 7.087315 -68.042881
-11.2951 55.752900000000004 78.3581 178.1003 -43.580651 -174.416224 -4.479009 9.052338 -113.163984 6.589631 6.408233 109.033953 -13.372481 36.029447 -119.94493 41.689358 27.042068 64.733591 0.00346 -0.0 -0.001592 -0.002174 0.0 -0.000547 -44.921366 -86.287717 -66.529087 170.481517 62.694041 -128.068442 -174.289992 73.24753 58.314488 149.703785 -42.005974 135.855445 -155.113804 6.918542 87.738706 142.723959 -42.750943 86.839913 37.215057 -57.918032 -0.64273 55.534326 -50.174061 6.946603 -161.15319 -8.160833 143.4646 -22.033515 45.963671 18.078631 0.004105 1.771359 0.556676 10.172157 0.230361 -0.037321 -1.147025 -2.91493 -1.065274 -127.98037 -30.104693 -126.410983 0.048816 0.292418 -0.064943 95.962553 -26.866086 171.685396 -13.044943 7.926168 142.404042 131.567932 39.879641 -116.103122 85.8289 38.630952 -47.95584 27.841269 -5.620117 -35.682991 -60.462073 -70.52347 -15.710012 -17.387606 -1.006727 5.540653 17.260255 35.487132 -12.86024 -29.534738 -60.189276 -6.459176 145.119382 0.267588 179.212842 157.185532 31.278985 -177.227779 10.078896 -20.711778 9.540554 -3.641737 2.105941 -0.564283 0.000408 -0.001818 -0.000524 -57.015295 -49.186385 -136.861311 -82.355304 7.873863 -34.94652 -150.83292 64.990362 -126.425459 -0.00338 -0.000204 -0.00338 31.853951 -20.944608 82.42877 73.341107 27.830296 9.031437 -60.447639 37.876293 -41.108528
-11.341800000000001 55.6596 78.5068 178.49361 -43.394807 -174.687023 -6.264503 12.293498 -0.0 5.525165 -11.750599 -2.779139 5.873042 33.39015 123.096281 -34.113815 34.965239 -160.854618 -0.000767 0.0 -0.005696 0.000281 -0.0 -8.9e-05 -129.706729 55.102536 133.553624 -29.618239 -7.541079 24.217086 -178.230397 -10.171955 -96.920225 -11.138088 50.979867 5.821779 -176.295536 -13.919742 89.718836 -77.902611 7.975185 24.848179 -162.920143 -37.929124 122.629204 -157.260069 -11.523888 119.33103 -167.29935 -27.76727 145.260558 -167.509835 -17.344621 143.843987 -145.120719 0.268311 -179.211308 12.007113 33.470506 -5.210897 -125.807632 -27.877018 -123.551056 -43.683525 -49.709234 -44.921443 157.882108 -65.637959 -175.443811 -135.697151 15.846142 140.590514 -176.343023 -4.896109 -36.612235 134.567158 37.811859 -119.18223 103.19946 36.330878 -60.111319 -12.797937 -27.412249 -24.604768 -12.216577 -21.784779 5.118626 29.075174 41.218427 -22.896528 158.521177 -0.192249 -142.145189 42.473245 58.278289 -36.600923 145.100536 -1.522296 178.650376 154.276973 71.876645 -169.597228 136.960208 -9.523685 134.261984 9.161366 -23.419355 12.025149 -0.00037 1.2e-05 -0.0 -58.215129 -49.540903 -180.0 -77.445232 -21.790383 -171.161858 -154.958881 -3.471521 101.2148 -0.000189 0.001625 0.000244 34.455383 -21.79983 -118.424112 -60.879189 -61.392695 16.965611 -85.665968 78.333782 -176.10142
